#!OML:ASF X:\für Bonn\!DataBase\2005_08_12_Daniel\c3d\Daniel.ASF
:FULLY-SPECIFIED
:DEGREES
121
root 38.2625 15.8411 1.54114 -16.6181 72.4506 -360.208
lowerback 19.8431 0.039027 6.59152
upperback 1.44967 1.58279 -0.329863
thorax -9.36977 0.515608 -4.56538
lowerneck 7.0707 2.89262 -1.8262
upperneck 11.4938 4.69195 -5.99862
head 2.5836 2.3091 -1.60353
rclavicle 2.15184e-014 4.77083e-015
rhumerus -18.778 31.1019 -95.3517
rradius 81.4258
rwrist -1.10568
rhand -23.9609 26.0191
rfingers 7.12502
rthumb 2.51509 -3.94586
lclavicle 2.15184e-014 4.77083e-015
lhumerus -21.1699 -26.9242 89.8213
lradius 88.8096
lwrist 12.2461
lhand -11.5406 -14.4277
lfingers 7.12502
lthumb 14.4997 15.0457
rfemur -21.0117 4.9034 26.7552
rtibia 54.5301
rfoot -16.4359 -2.37866
rtoes -6.49136
lfemur -22.5498 -4.62056 -12.6357
ltibia 57.5101
lfoot -14.996 -17.8566
ltoes 3.86875
122
root 38.3454 15.7952 1.54366 -17.4425 72.2679 -360.663
lowerback 20.2592 -0.0248664 6.66776
upperback 1.52864 1.55912 -0.241666
thorax -9.51506 0.501426 -4.51687
lowerneck 7.28539 2.80601 -1.63646
upperneck 10.3124 4.45507 -6.03314
head 2.14934 2.2156 -1.65056
rclavicle -3.82412e-014 -1.03368e-014
rhumerus -20.8839 29.7117 -96.9846
rradius 78.1611
rwrist -0.846144
rhand -22.7775 25.157
rfingers 7.12502
rthumb 3.65795 -4.7914
lclavicle -3.82412e-014 -1.03368e-014
lhumerus -23.6028 -25.1675 91.8006
lradius 85.9145
lwrist 11.4397
lhand -10.8055 -13.9673
lfingers 7.12502
lthumb 15.2079 15.4538
rfemur -20.858 4.98101 26.9397
rtibia 55.4888
rfoot -17.2225 -2.14934
rtoes -6.64547
lfemur -22.3173 -4.87398 -12.6028
ltibia 58.4761
lfoot -15.5317 -17.4599
ltoes 5.75666
123
root 38.426 15.7802 1.54738 -18.1257 72.0957 -360.97
lowerback 20.6638 -0.0699328 6.70853
upperback 1.59581 1.54824 -0.191009
thorax -9.6647 0.49324 -4.4925
lowerneck 7.42389 2.72174 -1.40175
upperneck 9.33038 4.24249 -5.95446
head 1.79951 2.13133 -1.66726
rclavicle -4.44781e-015 -9.54166e-015
rhumerus -22.96 28.0824 -98.4426
rradius 74.586
rwrist -0.714799
rhand -21.805 24.0581
rfingers 7.12502
rthumb 4.59707 -5.87204
lclavicle -4.44781e-015 -9.54166e-015
lhumerus -26.196 -22.8787 93.7372
lradius 83.0005
lwrist 11.0922
lhand -10.0593 -13.1999
lfingers 7.12502
lthumb 15.9266 16.1652
rfemur -20.399 4.99773 27.0503
rtibia 55.9914
rfoot -17.84 -1.87361
rtoes -7.03631
lfemur -21.839 -5.22652 -12.6743
ltibia 59.0824
lfoot -16.1779 -16.9138
ltoes 6.51365
124
root 38.5058 15.7874 1.55306 -18.8891 71.9169 -361.222
lowerback 21.1709 -0.120973 6.68783
upperback 1.69197 1.52515 -0.132389
thorax -9.8408 0.482483 -4.42298
lowerneck 7.35349 2.65288 -1.17255
upperneck 8.75084 4.09751 -5.86277
head 1.621 2.06952 -1.67592
rclavicle 1.4561e-014 -1.21259e-014
rhumerus -24.9028 26.2976 -99.7229
rradius 70.5506
rwrist -0.514452
rhand -21.3378 22.9809
rfingers 7.12502
rthumb 5.04815 -6.93896
lclavicle 1.4561e-014 -1.21259e-014
lhumerus -28.6512 -20.1614 95.4027
lradius 79.9636
lwrist 11.4715
lhand -9.62776 -12.1695
lfingers 7.12502
lthumb 16.3421 17.162
rfemur -19.5116 4.93759 27.1311
rtibia 56.0692
rfoot -18.3256 -1.52304
rtoes -7.48316
lfemur -20.9983 -5.62715 -12.8063
ltibia 59.3829
lfoot -16.8893 -16.3155
ltoes 6.4196
125
root 38.5834 15.8091 1.55756 -18.9999 71.7746 -361.352
lowerback 21.1291 -0.109362 6.62343
upperback 1.64952 1.5241 -0.109262
thorax -9.86791 0.482321 -4.35955
lowerneck 7.1045 2.58249 -0.903506
upperneck 8.49624 3.98304 -5.71431
head 1.57843 2.01565 -1.67039
rclavicle -1.9133e-015 -1.35174e-014
rhumerus -26.5441 24.3561 -100.732
rradius 66.0711
rwrist -0.154306
rhand -21.4296 22.0513
rfingers 7.12502
rthumb 4.95957 -7.87069
lclavicle -1.9133e-015 -1.35174e-014
lhumerus -30.7919 -17.3487 96.6439
lradius 76.7479
lwrist 12.5131
lhand -9.59543 -10.7678
lfingers 7.12502
lthumb 16.3732 18.5611
rfemur -19.07 4.8408 27.0945
rtibia 55.8341
rfoot -18.5905 -1.13095
rtoes -7.8603
lfemur -20.6503 -5.94546 -12.9437
ltibia 59.4564
lfoot -17.4693 -15.6882
ltoes 6.03783
126
root 38.6602 15.8497 1.5634 -19.1054 71.6056 -361.559
lowerback 20.7723 -0.0931193 6.66693
upperback 1.63077 1.52448 -0.117518
thorax -9.69144 0.485962 -4.38332
lowerneck 7.16265 2.51503 -0.710627
upperneck 8.19728 3.85822 -5.49812
head 1.46701 1.96253 -1.63431
rclavicle -1.06847e-014 -6.75868e-015
rhumerus -27.7882 22.0931 -101.494
rradius 61.0631
rwrist 0.636783
rhand -21.9538 21.516
rfingers 7.12502
rthumb 4.45339 -8.41717
lclavicle -1.06847e-014 -6.75868e-015
lhumerus -32.4602 -14.6622 97.3421
lradius 72.9917
lwrist 14.1486
lhand -10.3096 -9.42679
lfingers 7.12502
lthumb 15.6855 19.9574
rfemur -18.4936 4.7771 27.0846
rtibia 55.2683
rfoot -18.7416 -0.786445
rtoes -8.16008
lfemur -20.1906 -6.36169 -13.0821
ltibia 59.2444
lfoot -17.9981 -14.8927
ltoes 5.35117
127
root 38.7337 15.9155 1.57086 -19.0124 71.4652 -361.665
lowerback 20.2705 -0.0628383 6.64822
upperback 1.58276 1.51839 -0.111016
thorax -9.4704 0.489853 -4.34955
lowerneck 7.2062 2.47298 -0.663619
upperneck 8.0217 3.76628 -5.17885
head 1.39365 1.92072 -1.53978
rclavicle -2.05494e-014 9.93923e-016
rhumerus -28.8339 19.4125 -101.895
rradius 55.7949
rwrist 2.05178
rhand -22.7942 21.3229
rfingers 7.12502
rthumb 3.64181 -8.62575
lclavicle -2.05494e-014 9.93923e-016
lhumerus -33.6707 -11.9751 97.6674
lradius 68.3619
lwrist 15.8235
lhand -11.6402 -8.5378
lfingers 7.12502
lthumb 14.4037 20.9424
rfemur -17.8348 4.67075 27.0248
rtibia 54.3962
rfoot -18.7699 -0.447366
rtoes -8.31152
lfemur -19.6195 -6.97671 -13.3034
ltibia 58.7143
lfoot -18.4294 -13.9139
ltoes 4.84588
128
root 38.8074 15.995 1.58309 -18.7369 71.3267 -361.652
lowerback 19.6727 0.000702948 6.56012
upperback 1.50788 1.53148 -0.121743
thorax -9.22445 0.504922 -4.29803
lowerneck 7.16869 2.41512 -0.604033
upperneck 7.99906 3.66748 -4.84709
head 1.38291 1.87275 -1.44231
rclavicle 4.27387e-015 -9.74045e-015
rhumerus -29.728 16.1773 -101.882
rradius 50.465
rwrist 4.2883
rhand -23.826 21.2425
rfingers 7.12502
rthumb 2.64539 -8.72085
lclavicle 4.27387e-015 -9.74045e-015
lhumerus -34.5878 -9.16963 97.5945
lradius 63.0202
lwrist 16.8745
lhand -13.3382 -8.08983
lfingers 7.12502
lthumb 12.7672 21.4998
rfemur -17.0934 4.63364 26.9336
rtibia 53.2703
rfoot -18.719 -0.163645
rtoes -8.12559
lfemur -18.9413 -7.54258 -13.5318
ltibia 57.9108
lfoot -18.8486 -12.9753
ltoes 4.29864
129
root 38.8799 16.0845 1.60053 -18.4666 71.1892 -361.718
lowerback 18.9703 0.0681481 6.46331
upperback 1.42458 1.54024 -0.14001
thorax -8.92954 0.519398 -4.2456
lowerneck 6.97925 2.36273 -0.551647
upperneck 8.14238 3.58553 -4.45864
head 1.44958 1.82939 -1.32372
rclavicle 8.15017e-015 -1.11319e-014
rhumerus -30.381 12.4613 -101.368
rradius 45.1059
rwrist 7.23551
rhand -24.7218 21.0621
rfingers 7.12502
rthumb 1.78026 -8.91018
lclavicle 8.15017e-015 -1.11319e-014
lhumerus -35.1863 -6.06807 97.0525
lradius 57.2054
lwrist 16.9179
lhand -15.03 -7.80798
lfingers 7.12502
lthumb 11.1358 21.8765
rfemur -16.3047 4.63137 26.8921
rtibia 51.9421
rfoot -18.6815 0.0675283
rtoes -7.80161
lfemur -18.2412 -8.05841 -13.691
ltibia 56.9006
lfoot -19.1861 -12.1202
ltoes 3.69114
130
root 38.9529 16.1798 1.62144 -18.0686 71.0555 -361.738
lowerback 18.1741 0.145796 6.31251
upperback 1.30382 1.5475 -0.146169
thorax -8.62448 0.534169 -4.14655
lowerneck 6.73015 2.32172 -0.61414
upperneck 8.37115 3.51507 -4.01647
head 1.55073 1.78875 -1.16842
rclavicle -2.52705e-014 -2.88238e-014
rhumerus -30.9114 8.25094 -100.294
rradius 39.6947
rwrist 10.944
rhand -25.3842 20.563
rfingers 7.12502
rthumb 1.14047 -9.41365
lclavicle -2.52705e-014 -2.88238e-014
lhumerus -35.5061 -2.28921 96.0006
lradius 50.9383
lwrist 15.3242
lhand -16.4662 -7.67051
lfingers 7.12502
lthumb 9.75038 22.0838
rfemur -15.5198 4.71147 26.8511
rtibia 50.4997
rfoot -18.7731 0.304634
rtoes -7.88189
lfemur -17.5695 -8.48316 -13.8347
ltibia 55.7644
lfoot -19.5675 -11.3182
ltoes 2.65632
